Normalized EMG Linear Envelopes
nRows=252
nColumns=4

endheader
time	 med_gas_r	  soleus_r	 tib_ant_r	
2.86089	  0.002589	  0.004972	  0.001485	
2.89415	  0.002703	  0.005012	  0.001511	
2.92742	  0.002806	  0.005037	  0.001532	
2.96069	  0.002885	  0.005037	  0.001546	
2.99395	  0.002939	  0.005005	  0.001551	
3.02722	  0.002976	  0.004943	  0.001550	
3.06048	  0.003014	  0.004863	  0.001543	
3.09375	  0.003073	  0.004779	  0.001533	
3.12702	  0.003167	  0.004706	  0.001523	
3.16028	  0.003298	  0.004654	  0.001516	
3.19355	  0.003461	  0.004623	  0.001512	
3.22681	  0.003641	  0.004611	  0.001510	
3.26008	  0.003819	  0.004609	  0.001507	
3.29335	  0.003973	  0.004610	  0.001501	
3.32661	  0.004082	  0.004609	  0.001492	
3.35988	  0.004133	  0.004606	  0.001483	
3.39315	  0.004130	  0.004607	  0.001478	
3.42641	  0.004078	  0.004617	  0.001478	
3.45968	  0.003988	  0.004634	  0.001486	
3.49294	  0.003865	  0.004653	  0.001499	
3.52621	  0.003713	  0.004667	  0.001515	
3.55948	  0.003541	  0.004674	  0.001530	
3.59274	  0.003365	  0.004676	  0.001544	
3.62601	  0.003205	  0.004674	  0.001554	
3.65927	  0.003078	  0.004670	  0.001559	
3.69254	  0.002989	  0.004664	  0.001558	
3.72581	  0.002942	  0.004663	  0.001550	
3.75907	  0.002935	  0.004675	  0.001534	
3.79234	  0.002967	  0.004707	  0.001515	
3.8256	  0.003031	  0.004758	  0.001497	
3.85887	  0.003116	  0.004814	  0.001484	
3.89214	  0.003205	  0.004858	  0.001481	
3.9254	  0.003279	  0.004876	  0.001484	
3.95867	  0.003321	  0.004862	  0.001493	
3.99194	  0.003321	  0.004824	  0.001505	
4.0252	  0.003282	  0.004777	  0.001518	
4.05847	  0.003212	  0.004734	  0.001532	
4.09173	  0.003129	  0.004701	  0.001547	
4.125	  0.003055	  0.004671	  0.001560	
4.15827	  0.003008	  0.004637	  0.001569	
4.19153	  0.002999	  0.004594	  0.001572	
4.2248	  0.003029	  0.004552	  0.001568	
4.25806	  0.003088	  0.004528	  0.001560	
4.29133	  0.003157	  0.004536	  0.001549	
4.3246	  0.003213	  0.004585	  0.001539	
4.35786	  0.003239	  0.004666	  0.001533	
4.39113	  0.003221	  0.004765	  0.001533	
4.4244	  0.003162	  0.004860	  0.001540	
4.45766	  0.003076	  0.004933	  0.001552	
4.49093	  0.002986	  0.004970	  0.001567	
4.52419	  0.002921	  0.004970	  0.001587	
4.55746	  0.002904	  0.004935	  0.001611	
4.59073	  0.002946	  0.004870	  0.001643	
4.62399	  0.003040	  0.004777	  0.001688	
4.65726	  0.003163	  0.004658	  0.001751	
4.69052	  0.003283	  0.004530	  0.001839	
4.72379	  0.003378	  0.004423	  0.001960	
4.75706	  0.003434	  0.004390	  0.002113	
4.79032	  0.003450	  0.004491	  0.002287	
4.82359	  0.003434	  0.004783	  0.002453	
4.85685	  0.003393	  0.005309	  0.002562	
4.89012	  0.003335	  0.006103	  0.002535	
4.92339	  0.003264	  0.007174	  0.002264	
4.95665	  0.003179	  0.008470	  0.001610	
4.98992	  0.003069	  0.009804	  0.000416	
5.02319	  0.002918	  0.010829	 -0.001466	
5.05645	  0.002710	  0.011120	 -0.004136	
5.08972	  0.002437	  0.010370	 -0.007598	
5.12298	  0.002113	  0.008581	 -0.011676	
5.15625	  0.001782	  0.006102	 -0.015874	
5.18952	  0.001522	  0.003514	 -0.019230	
5.22278	  0.001442	  0.001457	 -0.020202	
5.25605	  0.001678	  0.000548	 -0.016666	
5.28931	  0.002395	  0.001412	 -0.005951	
5.32258	  0.003783	  0.004768	  0.015097	
5.35585	  0.006049	  0.011461	  0.049892	
5.38911	  0.009365	  0.022311	  0.101311	
5.42238	  0.013766	  0.037753	  0.170176	
5.45565	  0.019037	  0.057438	  0.253546	
5.48891	  0.024663	  0.080070	  0.344152	
5.52218	  0.029931	  0.103691	  0.432042	
5.55544	  0.034150	  0.126250	  0.508013	
5.58871	  0.036889	  0.146069	  0.566883	
5.62198	  0.038105	  0.162011	  0.608512	
5.65524	  0.038114	  0.173507	  0.636211	
5.68851	  0.037442	  0.180692	  0.654058	
5.72177	  0.036641	  0.184524	  0.665163	
5.75504	  0.036132	  0.186512	  0.671595	
5.78831	  0.036103	  0.187925	  0.675100	
5.82157	  0.036506	  0.188991	  0.677287	
5.85484	  0.037138	  0.188799	  0.678932	
5.8881	  0.037780	  0.186117	  0.679233	
5.92137	  0.038304	  0.180486	  0.676103	
5.95464	  0.038677	  0.172710	  0.667741	
5.9879	  0.038900	  0.164378	  0.654367	
6.02117	  0.038953	  0.156949	  0.638671	
6.05444	  0.038796	  0.151156	  0.624398	
6.0877	  0.038408	  0.147035	  0.614161	
6.12097	  0.037808	  0.144282	  0.608218	
6.15423	  0.037046	  0.142523	  0.605050	
6.1875	  0.036186	  0.141358	  0.602925	
6.22077	  0.035289	  0.140324	  0.600881	
6.25403	  0.034391	  0.138928	  0.598464	
6.2873	  0.033504	  0.136825	  0.594947	
6.32056	  0.032624	  0.134019	  0.589308	
6.35383	  0.031758	  0.130919	  0.581224	
6.3871	  0.030949	  0.128126	  0.572034	
6.42036	  0.030277	  0.126048	  0.564417	
6.45363	  0.029824	  0.124614	  0.560746	
6.4869	  0.029607	  0.123351	  0.561538	
6.52016	  0.029534	  0.121776	  0.565389	
6.55343	  0.029424	  0.119785	  0.570311	
6.58669	  0.029107	  0.117694	  0.575036	
6.61996	  0.028538	  0.115951	  0.579199	
6.65323	  0.027846	  0.114805	  0.582741	
6.68649	  0.027257	  0.114225	  0.585603	
6.71976	  0.026967	  0.114074	  0.587970	
6.75302	  0.027060	  0.114325	  0.590335	
6.78629	  0.027509	  0.115108	  0.592857	
6.81956	  0.028222	  0.116634	  0.594585	
6.85282	  0.029067	  0.119104	  0.593619	
6.88609	  0.029878	  0.122700	  0.588443	
6.91935	  0.030489	  0.127539	  0.579421	
6.95262	  0.030808	  0.133537	  0.569196	
6.98589	  0.030870	  0.140254	  0.561667	
7.01915	  0.030814	  0.146933	  0.560245	
7.05242	  0.030790	  0.152801	  0.566367	
7.08569	  0.030870	  0.157390	  0.578846	
7.11895	  0.031026	  0.160594	  0.594159	
7.15222	  0.031193	  0.162470	  0.607613	
7.18548	  0.031326	  0.163044	  0.615087	
7.21875	  0.031428	  0.162332	  0.614653	
7.25202	  0.031502	  0.160458	  0.607127	
7.28528	  0.031511	  0.157646	  0.595183	
7.31855	  0.031372	  0.154075	  0.581728	
7.35181	  0.031009	  0.149803	  0.568775	
7.38508	  0.030424	  0.144900	  0.557438	
7.41835	  0.029718	  0.139667	  0.548466	
7.45161	  0.029052	  0.134718	  0.542350	
7.48488	  0.028558	  0.130855	  0.538895	
7.51815	  0.028280	  0.128821	  0.537010	
7.55141	  0.028181	  0.129061	  0.535269	
7.58468	  0.028187	  0.131547	  0.532836	
7.61794	  0.028231	  0.135679	  0.529903	
7.65121	  0.028270	  0.140361	  0.527339	
7.68448	  0.028286	  0.144338	  0.526039	
7.71774	  0.028292	  0.146666	  0.526560	
7.75101	  0.028336	  0.147055	  0.529018	
7.78427	  0.028486	  0.145874	  0.532903	
7.81754	  0.028789	  0.143900	  0.536878	
7.85081	  0.029247	  0.142083	  0.539122	
7.88407	  0.029830	  0.141373	  0.538439	
7.91734	  0.030499	  0.142469	  0.535373	
7.9506	  0.031229	  0.145435	  0.532186	
7.98387	  0.032021	  0.149471	  0.531543	
8.01714	  0.032895	  0.153193	  0.535042	
8.0504	  0.033876	  0.155387	  0.542865	
8.08367	  0.034959	  0.155761	  0.554481	
8.11694	  0.036055	  0.155156	  0.569249	
8.1502	  0.036974	  0.154998	  0.586135	
8.18347	  0.037480	  0.156362	  0.603096	
8.21673	  0.037413	  0.159272	  0.617294	
8.25	  0.036813	  0.162774	  0.626405	
8.28327	  0.035956	  0.165716	  0.630020	
8.31653	  0.035263	  0.167632	  0.629819	
8.3498	  0.035124	  0.169089	  0.628298	
8.38306	  0.035749	  0.171283	  0.627094	
8.41633	  0.037078	  0.175164	  0.626193	
8.4496	  0.038785	  0.180630	  0.624421	
8.48286	  0.040362	  0.186276	  0.620473	
8.51613	  0.041282	  0.189921	  0.613565	
8.5494	  0.041187	  0.189681	  0.603468	
8.58266	  0.040026	  0.184899	  0.590449	
8.61593	  0.038057	  0.176326	  0.575537	
8.64919	  0.035710	  0.165536	  0.560755	
8.68246	  0.033403	  0.154136	  0.548581	
8.71573	  0.031404	  0.143351	  0.540639	
8.74899	  0.029800	  0.134027	  0.536683	
8.78226	  0.028573	  0.126774	  0.534881	
8.81552	  0.027688	  0.121989	  0.533185	
8.84879	  0.027149	  0.119756	  0.530545	
8.88206	  0.026963	  0.119751	  0.527072	
8.91532	  0.027078	  0.121246	  0.523421	
8.94859	  0.027353	  0.123276	  0.520280	
8.98185	  0.027626	  0.124942	  0.518288	
9.01512	  0.027824	  0.125791	  0.517984	
9.04839	  0.028026	  0.126036	  0.519498	
9.08165	  0.028401	  0.126450	  0.522324	
9.11492	  0.029090	  0.127986	  0.525725	
9.14819	  0.030126	  0.131375	  0.529532	
9.18145	  0.031447	  0.136924	  0.534476	
9.21472	  0.032955	  0.144482	  0.541444	
9.24798	  0.034541	  0.153452	  0.550216	
9.28125	  0.036067	  0.162828	  0.558878	
9.31452	  0.037354	  0.171351	  0.564543	
9.34778	  0.038216	  0.177780	  0.564749	
9.38105	  0.038531	  0.181219	  0.558337	
9.41431	  0.038279	  0.181341	  0.545462	
9.44758	  0.037546	  0.178438	  0.527344	
9.48085	  0.036493	  0.173288	  0.506324	
9.51411	  0.035318	  0.166917	  0.485813	
9.54738	  0.034220	  0.160374	  0.469397	
9.58065	  0.033361	  0.154600	  0.459248	
9.61391	  0.032838	  0.150365	  0.455079	
9.64718	  0.032688	  0.148175	  0.454660	
9.68044	  0.032917	  0.148132	  0.455502	
9.71371	  0.033514	  0.149847	  0.456248	
9.74698	  0.034408	  0.152501	  0.456719	
9.78024	  0.035416	  0.155072	  0.456991	
9.81351	  0.036252	  0.156626	  0.456746	
9.84677	  0.036650	  0.156600	  0.455634	
9.88004	  0.036523	  0.154969	  0.454175	
9.91331	  0.036042	  0.152245	  0.454099	
9.94657	  0.035535	  0.149217	  0.457560	
9.97984	  0.035257	  0.146505	  0.465703	
10.0131	  0.035188	  0.144137	  0.477582	
10.0464	  0.035009	  0.141434	  0.490025	
10.0796	  0.034274	  0.137324	  0.498298	
10.1129	  0.032637	  0.130882	  0.497081	
10.1462	  0.029998	  0.121716	  0.481508	
10.1794	  0.026490	  0.109963	  0.448369	
10.2127	  0.022399	  0.096057	  0.397410	
10.246	  0.018078	  0.080594	  0.332170	
10.2792	  0.013899	  0.064411	  0.259534	
10.3125	  0.010197	  0.048647	  0.187807	
10.3458	  0.007203	  0.034548	  0.124186	
10.379	  0.005003	  0.023075	  0.072980	
10.4123	  0.003542	  0.014592	  0.035322	
10.4456	  0.002688	  0.008873	  0.010057	
10.4788	  0.002287	  0.005355	 -0.005069	
10.5121	  0.002200	  0.003420	 -0.012569	
10.5454	  0.002309	  0.002564	 -0.014801	
10.5786	  0.002512	  0.002413	 -0.013789	
10.6119	  0.002730	  0.002687	 -0.011125	
10.6452	  0.002914	  0.003178	 -0.007920	
10.6784	  0.003045	  0.003740	 -0.004847	
10.7117	  0.003130	  0.004284	 -0.002252	
10.745	  0.003183	  0.004762	 -0.000261	
10.7782	  0.003218	  0.005154	  0.001126	
10.8115	  0.003238	  0.005452	  0.001985	
10.8448	  0.003240	  0.005655	  0.002431	
10.878	  0.003220	  0.005757	  0.002583	
10.9113	  0.003178	  0.005752	  0.002550	
10.9446	  0.003115	  0.005637	  0.002415	
10.9778	  0.003034	  0.005430	  0.002240	
11.0111	  0.002940	  0.005178	  0.002072	
11.0444	  0.002844	  0.004953	  0.001942	
11.0776	  0.002764	  0.004828	  0.001874	
11.1109	  0.002716	  0.004855	  0.001876	
11.1442	  0.002711	  0.005045	  0.001946	
11.1774	  0.002748	  0.005373	  0.002067	
11.2107	  0.002813	  0.005783	  0.002218	
